PathFileType	4	(X/Y/Z)	OpenSim_Sub10_EMGStiffKnee_Gyro.trc
DataRate	CameraRate	NumFrames	NumMarkers	Units	OrigDataRate	OrigDataStartFrame	OrigNumFrames
100	100	13	8	m	100	6279	8371
Frame#	Time	torso_imu_offset_imu	pelvis_imu_offset_imu	tibia_r_imu_offset_imu	femur_r_imu_offset_imu	tibia_l_imu_offset_imu	femur_l_imu_offset_imu	toes_r_imu_offset_imu	toes_l_imu_offset_imu
				X1	Y1	Z1	X2	Y2	Z2	X3	Y3	Z3	X4	Y4	Z4	X5	Y5	Z5	X6	Y6	Z6	X7	Y7	Z7	X8		Y8	Z8	

6279	62.78000000	-0.53452300	-0.13613000	-0.12780100	-0.25570400	0.29640000	0.09958400	0.83090100	-0.38150100	4.66175300	1.00619600	-0.20820600	0.79974200	0.63899700	-0.16290500	0.50750100	-0.00148100	-0.20354200	1.08885200	-1.14211400	4.46021300	0.95082000	-0.10936700	-0.02619500	0.14860300
6280	62.79000000	-0.48631600	-0.14765100	-0.10317600	-0.17307100	0.24140100	0.07607100	1.45363300	-0.47585800	4.69683200	1.02329400	-0.13162900	0.63966000	0.59736700	-0.11025400	0.52576300	0.23620000	-0.15562500	1.09042600	-1.19734600	4.61488700	0.87785300	-0.05437900	-0.06554100	0.13772900
6281	62.80000000	-0.43308300	-0.19245700	-0.07103100	-0.10496700	0.19363600	0.05486400	2.16009000	-0.57219200	4.72574700	1.02400500	-0.06511300	0.47266000	0.44448300	-0.07230200	0.54143500	0.34716500	-0.12912800	1.03335600	-1.30073300	4.66451700	0.82946700	-0.05060700	-0.06563400	0.10506200
6282	62.81000000	-0.37817600	-0.24349100	-0.03799100	-0.06837500	0.15742600	0.04814900	2.82114800	-0.54579600	4.74436800	1.00416000	0.00447000	0.32463300	0.24088800	-0.02961000	0.56402200	0.35382300	-0.10544400	0.96872500	-1.47477700	4.47157000	0.79056300	-0.04309900	-0.08399400	0.09799900
6283	62.82000000	-0.31117700	-0.29607700	0.00663600	-0.05619000	0.13211500	0.03393400	3.14494900	-0.36694500	4.77748200	0.98543800	0.07692200	0.17731000	0.04792300	-0.00278300	0.54737400	0.31102300	-0.08526600	0.93367300	-1.52887300	4.12687200	0.79669500	-0.03976600	-0.11118000	0.09010000
6284	62.83000000	-0.25416700	-0.31778700	0.04251800	-0.04479700	0.10128900	0.03173100	3.00248200	-0.05283600	4.86193600	0.95299300	0.13118600	0.02996800	-0.05178200	0.03392300	0.53658600	0.22456900	-0.08007400	0.91794200	-1.58333000	3.95174000	0.95155000	-0.06358100	-0.11682500	0.08825600
6285	62.84000000	-0.20944500	-0.31985400	0.06252900	-0.01908400	0.08575300	0.02298300	2.43927100	0.40241900	5.08503000	0.93716000	0.15264200	-0.13339300	-0.12244400	0.02994700	0.55971900	0.12254400	-0.11354200	0.93196200	-1.46167600	4.20510600	1.27180600	-0.04070700	-0.10061300	0.07461400
6286	62.85000000	-0.15339000	-0.29535100	0.11083300	0.01633000	0.09322400	0.02506400	1.63309800	0.86580000	5.41971300	0.90548000	0.12866700	-0.26304200	-0.11708900	0.01671800	0.59611000	0.03307900	-0.18101000	0.93353700	-0.87762500	4.38740000	1.65221600	-0.06117600	-0.11984200	0.07186000
6287	62.86000000	-0.04031300	-0.24314500	0.15819900	0.04512300	0.08556900	0.03185800	0.99915400	1.09710300	5.70116500	0.81190200	0.09276200	-0.33062400	-0.04196800	0.01937300	0.63233700	-0.06472200	-0.23556200	0.91336000	-0.31267300	4.31867300	2.07149600	-0.06586700	-0.12769900	0.06722600
6288	62.87000000	0.04623600	-0.23015000	0.18402300	0.05969500	0.05609400	0.03555200	0.69993300	0.94839900	5.54373800	0.66190200	0.13858300	-0.39478200	0.06895900	0.05200000	0.65912000	-0.15109600	-0.25191900	0.88884300	-0.04327000	4.19856900	2.57776200	-0.07305600	-0.15135400	0.06544900
6289	62.88000000	0.08029700	-0.24069200	0.19626400	0.07401300	0.03198400	0.04290000	0.53415400	0.49319600	4.74795600	0.41303900	0.26362300	-0.43489000	0.12848700	0.08540000	0.71188700	-0.22229800	-0.21770100	0.86967400	-0.26141200	4.09553800	3.02865200	-0.07464700	-0.15002500	0.06354800
6290	62.89000000	0.11501600	-0.24639800	0.19996600	0.10743000	0.04769900	0.04814600	0.42949600	0.05141600	3.72933500	0.04785100	0.32687700	-0.47706600	0.18419700	0.07094200	0.77388900	-0.27824500	-0.16707100	0.86090600	-0.22095500	3.94841300	3.13941400	-0.11014000	-0.17397600	0.07071500
6291	62.90000000	0.14856000	-0.21522700	0.20517900	0.15202700	0.08800500	0.06382600	0.25720800	-0.01063200	3.07241700	-0.39339600	0.23339200	-0.56820900	0.22379700	0.09669300	0.81841900	-0.31104900	-0.13453700	0.85798600	0.26305100	3.65771400	2.85434500	-0.10169500	-0.20701000	0.07125200
